<svg id="Layer_1" data-name="Layer 1" xmlns="http://www.w3.org/2000/svg" viewBox="0 0 610.19 128.78"><defs><style>.cls-1{fill:#287bce;}.cls-2{fill:#243f66;}</style></defs><title>Logo-Azul</title><path class="cls-1" d="M978.07,345V310.17q0-10.43-3.8-15.4t-12-5q-8.35,0-12.33,5t-4,15.34V345H934.15V310.17q0-10.31-4-15.34t-12.33-5q-8.34,0-12.15,5t-3.8,15.4V345H890.1v-36q0-14.35,7.05-22.09t20.67-7.73a28.8,28.8,0,0,1,13.56,2.88,20.82,20.82,0,0,1,8.65,8.77q6.13-11.66,22.09-11.66,13.5,0,20.61,7.73t7.12,22.09v36Z" transform="translate(-379.66 -241.95)"/><path class="cls-1" d="M565.49,279.25v65H554.2V334a25.51,25.51,0,0,1-9.94,8.22A30.8,30.8,0,0,1,531,345a34.16,34.16,0,0,1-16.93-4.17,29.87,29.87,0,0,1-11.72-11.72,37.59,37.59,0,0,1,0-34.66,30,30,0,0,1,11.72-11.66A34.18,34.18,0,0,1,531,278.64a31.15,31.15,0,0,1,12.88,2.64,25,25,0,0,1,9.82,7.79v-9.82Zm-22.33,52.57a20.22,20.22,0,0,0,7.85-8.1,26.77,26.77,0,0,0,0-23.93,19.86,19.86,0,0,0-7.85-8,23.63,23.63,0,0,0-22.39,0,20.36,20.36,0,0,0-7.85,8,26.26,26.26,0,0,0,0,23.93,20.74,20.74,0,0,0,7.85,8.1,23.18,23.18,0,0,0,22.39,0Z" transform="translate(-379.66 -241.95)"/><path class="cls-1" d="M641.93,286.55q7.3,7.18,7.3,21V345H637.45V308.94q0-9.45-4.54-14.23t-13-4.79q-9.57,0-15.09,5.58t-5.52,16V345H587.51V280H598.8v9.82a22.91,22.91,0,0,1,9.63-7.73,33.69,33.69,0,0,1,13.8-2.7Q634.63,279.37,641.93,286.55Z" transform="translate(-379.66 -241.95)"/><path class="cls-1" d="M702.11,340.48a17.6,17.6,0,0,1-6.38,3.37,26.67,26.67,0,0,1-7.85,1.16q-9.82,0-15.21-5.27t-5.4-15.09V265H679v14.23h18.65v9.69H679v35.21q0,5.28,2.64,8.1t7.55,2.82a14.19,14.19,0,0,0,9.2-3.07Z" transform="translate(-379.66 -241.95)"/><path class="cls-1" d="M731.68,274.34V280h19v9.69H731.92V345H720.15V274.22q0-9.69,5.64-15.34t15.83-5.65a26.7,26.7,0,0,1,7.36,1,18,18,0,0,1,5.89,2.82l-3.56,9a14.67,14.67,0,0,0-9.08-3.07Q731.68,262.93,731.68,274.34Z" transform="translate(-379.66 -241.95)"/><path class="cls-1" d="M788.73,282.32a33,33,0,0,1,14.6-2.95v11.41a22.94,22.94,0,0,0-2.7-.12q-9.57,0-15,5.71t-5.46,16.26V345H768.36V280h11.29v10.92A20.09,20.09,0,0,1,788.73,282.32Z" transform="translate(-379.66 -241.95)"/><path class="cls-1" d="M824.43,340.72a31.11,31.11,0,0,1-12.08-11.84,35.8,35.8,0,0,1,0-34.23,30.7,30.7,0,0,1,12.08-11.78,35.69,35.69,0,0,1,17.42-4.23,35.33,35.33,0,0,1,17.36,4.23,30.83,30.83,0,0,1,12,11.78,35.8,35.8,0,0,1,0,34.23,31.25,31.25,0,0,1-12,11.84A34.9,34.9,0,0,1,841.86,345,35.26,35.26,0,0,1,824.43,340.72Zm28.65-8.9a20.34,20.34,0,0,0,7.79-8.1,26.78,26.78,0,0,0,0-23.93,20,20,0,0,0-7.79-8,23.75,23.75,0,0,0-22.45,0,20.36,20.36,0,0,0-7.85,8,26.26,26.26,0,0,0,0,23.93,20.74,20.74,0,0,0,7.85,8.1,23.3,23.3,0,0,0,22.45,0Z" transform="translate(-379.66 -241.95)"/><circle class="cls-2" cx="81.88" cy="119.06" r="9.71"/><circle class="cls-2" cx="30.91" cy="119.06" r="9.71"/><path class="cls-2" d="M485.78,279.25v36q0,14.35-7.12,22.09T458,345q-16,0-22.09-11.66a20.82,20.82,0,0,1-8.65,8.77A28.8,28.8,0,0,1,413.76,345q-13.62,0-20.67-7.73T386,315.2l10.08-.94a24.51,24.51,0,0,0,5.51,15.24q3.8,5,12.15,5t12.33-5q4-5,4-15.34V279.25h11.78V314.1q0,10.31,4,15.34t12.33,5q8.22,0,12-5t3.8-15.4V279.25Z" transform="translate(-379.66 -241.95)"/><path class="cls-2" d="M390.52,328.76a16.54,16.54,0,0,1-4.14-5.7,24.92,24.92,0,0,1-2-8.59l-4.75-71.74,11.75-.78,4.68,70.76a34.85,34.85,0,0,1-.1,3.67c-.27,4.66-.73,11.1,1.8,10.94,2-.13,4.68,5.39,1.75,5.59C393.26,333.32,394.18,332,390.52,328.76Z" transform="translate(-379.66 -241.95)"/><path class="cls-2" d="M386.65,323.07c.77,2.86,1.62,5.84,1.62,5.84s-2.91-4.29-3.44-13.13l4.77-10.65" transform="translate(-379.66 -241.95)"/></svg>